<svg width="92" height="92" viewBox="0 0 92 92" fill="none" xmlns="http://www.w3.org/2000/svg">
<path d="M18.8416 10.6317C4.31612 15.6044 -3.45348 31.4864 1.48759 46.105L8.28462 66.2147C8.45931 66.2114 8.63578 66.2098 8.81401 66.2098C11.5265 66.2098 16.9255 67.1031 25.0108 68.8897C30.4619 67.4446 34.7523 65.1719 37.8822 62.0716C40.9338 59.0501 45.6154 52.4685 51.9273 42.3268C55.7352 36.1787 59.9216 30.9371 64.4854 26.6019C60.6773 20.1385 54.5093 16.9068 45.9807 16.9068C37.165 16.9068 29.0796 20.4012 21.7245 27.3901C18.0209 30.9108 15.0606 34.7993 12.8437 39.0557C10.6267 43.3121 9.51819 47.2268 9.51819 50.8002C9.51819 53.6377 10.405 55.9104 12.1785 57.6182C13.9782 59.326 16.3517 60.1799 19.2989 60.1799C24.2805 60.1799 29.4447 57.4736 34.7915 52.0613C40.1644 46.6488 42.8508 41.4466 42.8508 36.4546C42.8508 34.5629 42.3291 33.039 41.2859 31.8829C40.2426 30.7269 38.8734 30.1489 37.178 30.1489C35.2479 30.1489 34.2829 30.4641 34.2829 31.0948C34.2829 31.2786 34.4264 31.3706 34.7132 31.3706C34.8698 31.3706 35.0001 31.3443 35.1045 31.2918H35.6522C36.9302 31.2918 37.5692 31.8829 37.5692 33.0653C37.5692 33.9323 37.2432 34.6943 36.5912 35.3511C35.9391 35.9817 35.1697 36.2969 34.2829 36.2969C32.6919 36.2969 31.8964 35.4299 31.8964 33.6958C31.8964 32.5135 32.418 31.5019 33.4613 30.6612C34.5046 29.8204 35.7695 29.4 37.2562 29.4C39.1602 29.4 40.6991 30.0438 41.8727 31.3312C43.0725 32.5923 43.6723 34.2476 43.6723 36.2969C43.6723 41.6042 40.9208 47.0298 35.4175 52.5736C29.9402 58.1174 24.5674 60.8893 19.2989 60.8893C15.6735 60.8893 12.6871 59.6807 10.3398 57.2635C7.99239 54.82 6.81873 51.6934 6.81873 47.8838C6.81873 39.7126 10.8223 32.3952 18.8295 25.9319C26.8365 19.4422 35.887 16.1974 45.9807 16.1974C54.5615 16.1974 61.0301 19.3897 65.385 25.7742C70.2582 21.2475 75.1925 18.4539 80.1888 17.3934C74.6821 3.79154 59.5196 -3.29464 45.5233 1.49713L18.8416 10.6317Z" fill="url(#paint0_linear_2004_7)"/>
<path d="M80.4243 17.9971C75.4703 18.9819 70.6405 21.8764 65.9329 26.6807C68.1763 30.8845 69.2976 35.3248 69.2976 40.0015C69.2976 48.6194 66.0117 55.9236 59.4389 61.9139C52.8923 67.9044 44.8852 70.8996 35.4175 70.8996C32.4964 70.8996 28.4928 70.4924 23.4068 69.6779C18.999 70.4924 14.7737 70.8996 10.7311 70.8996C10.4367 70.8996 10.1486 70.8983 9.86682 70.8959L10.5639 72.9581C15.505 87.5767 31.2857 95.3963 45.811 90.4235L72.4928 81.2889C87.0178 76.3161 94.7877 60.4342 89.8465 45.8155L86.3301 35.4098C77.7818 49.7594 72.7116 58.3445 71.1174 61.1652C69.3183 64.3968 68.4187 66.5382 68.4187 67.5892C68.4187 68.7714 68.9143 69.3626 69.9045 69.3626C72.0958 69.3626 76.1127 65.1982 81.9544 56.8693C82.0855 56.6067 82.2412 56.4753 82.4244 56.4753C82.5289 56.5016 82.5811 56.5804 82.5811 56.7118C82.5811 56.8694 82.45 57.0796 82.1899 57.3423L80.5071 59.6676C75.5777 66.5251 71.9391 69.9537 69.5922 69.9537C68.4709 69.9537 67.5448 69.5334 66.8147 68.6926C66.1102 67.8256 65.7575 66.7352 65.7575 65.4215C65.7575 63.9765 66.0836 62.584 66.7358 61.244C67.4137 59.8778 69.6828 55.9629 73.5431 49.4996C77.8665 42.2576 81.5662 35.8969 84.6423 30.4176L80.7701 18.9625C80.6608 18.6373 80.5455 18.3155 80.4243 17.9971Z" fill="url(#paint1_linear_2004_7)"/>
<path d="M9.62417 70.1779C10.2103 70.1861 10.827 70.1903 11.4744 70.1903C15.3867 70.1903 18.9077 69.9407 22.0376 69.4415C16.6202 68.6703 12.2369 68.1894 8.88757 67.9985L9.62417 70.1779Z" fill="url(#paint2_linear_2004_7)"/>
<path d="M65.0726 27.6265C66.455 30.5691 67.1457 33.722 67.1457 37.0851C67.1457 43.1544 65.1377 49.3419 61.1207 55.6475C54.9397 65.3952 46.8543 70.269 36.8649 70.269C33.1353 70.269 29.6143 69.9143 26.3019 69.2049C34.1525 66.9979 40.1122 64.0683 44.1809 60.4163C48.1193 56.843 51.9273 50.9971 55.6047 42.8785C58.3954 36.7566 61.5513 31.6727 65.0726 27.6265Z" fill="url(#paint3_linear_2004_7)"/>
<defs>
<linearGradient id="paint0_linear_2004_7" x1="-44.8918" y1="-34.6448" x2="92.0769" y2="74.6132" gradientUnits="userSpaceOnUse">
<stop stop-color="#977CAB"/>
<stop offset="0.588542" stop-color="#D8ADC1"/>
<stop offset="1" stop-color="#E067C3"/>
</linearGradient>
<linearGradient id="paint1_linear_2004_7" x1="-44.8918" y1="-34.6448" x2="92.0769" y2="74.6132" gradientUnits="userSpaceOnUse">
<stop stop-color="#977CAB"/>
<stop offset="0.588542" stop-color="#D8ADC1"/>
<stop offset="1" stop-color="#E067C3"/>
</linearGradient>
<linearGradient id="paint2_linear_2004_7" x1="-44.8918" y1="-34.6446" x2="92.0768" y2="74.6134" gradientUnits="userSpaceOnUse">
<stop stop-color="#977CAB"/>
<stop offset="0.588542" stop-color="#D8ADC1"/>
<stop offset="1" stop-color="#E067C3"/>
</linearGradient>
<linearGradient id="paint3_linear_2004_7" x1="-44.8918" y1="-34.6448" x2="92.0769" y2="74.6131" gradientUnits="userSpaceOnUse">
<stop stop-color="#977CAB"/>
<stop offset="0.588542" stop-color="#D8ADC1"/>
<stop offset="1" stop-color="#E067C3"/>
</linearGradient>
</defs>
</svg>
