<svg width="174" height="134" viewBox="0 0 174 134" fill="none" xmlns="http://www.w3.org/2000/svg">
<g clip-path="url(#clip0_170_1023)">
<path fill-rule="evenodd" clip-rule="evenodd" d="M3.25378 126.357C1.08459 126.357 0 125.468 0 123.691C0 123.006 0.239619 122.384 0.718858 121.826C1.24854 121.242 1.87912 120.95 2.61059 120.95C3.14028 120.95 3.55646 121.128 3.85913 121.483C4.13659 121.813 4.27532 122.168 4.27532 122.549C4.27532 123.159 4.02309 123.679 3.51862 124.111C3.11505 124.492 2.66104 124.682 2.15658 124.682C1.72778 124.682 1.33682 124.529 0.983701 124.225C1.26116 124.961 1.98001 125.329 3.14028 125.329C3.46818 125.329 3.75824 125.291 4.01047 125.215C6.10399 124.63 7.92005 123.349 9.45866 121.369C10.0136 120.658 10.745 119.553 11.6531 118.056C12.5611 116.533 13.5953 114.592 14.7555 112.23C15.2852 111.139 15.7644 110.098 16.1932 109.108C16.6472 108.093 17.076 107.153 17.4796 106.29C19.4722 102.101 21.0108 99.4111 22.0954 98.2178C21.1117 97.8878 20.0398 97.7228 18.8795 97.7228C15.3987 97.7228 12.0062 99.0936 8.70197 101.836C6.96158 103.282 5.58692 104.818 4.57799 106.443C3.66996 107.889 3.21595 109.159 3.21595 110.25C3.21595 111.52 3.80869 112.154 4.99417 112.154C6.07877 112.154 7.50387 111.545 9.26949 110.327C11.0603 109.082 12.2963 107.585 12.9773 105.834C13.053 105.63 13.1538 105.528 13.28 105.528C13.4061 105.58 13.4439 105.681 13.3935 105.834C12.662 108.067 11.3504 109.844 9.45866 111.165C7.94528 112.18 6.54539 112.688 5.25902 112.688C4.19965 112.688 3.34206 112.357 2.68626 111.697C2.00524 111.038 1.66472 110.161 1.66472 109.07C1.66472 106.582 3.25378 104.031 6.43189 101.416C10.0136 98.4716 14.1375 96.9993 18.8038 96.9993C19.5101 96.9993 20.2037 97.0374 20.8847 97.1135C21.5658 97.1897 22.2216 97.3166 22.8521 97.4943C24.416 96.1235 26.0429 95.4381 27.7328 95.4381C28.3886 95.4381 29.057 95.5777 29.738 95.857C29.9146 95.9331 29.9777 96.0347 29.9272 96.1616C29.8515 96.2885 29.7633 96.3393 29.6624 96.3139C29.284 96.1362 28.83 96.0473 28.3003 96.0473C26.8626 96.0473 25.5132 96.6693 24.252 97.9132C26.5221 98.7255 28.2751 99.9822 29.511 101.683C30.8983 103.536 31.5919 105.782 31.5919 108.423V109.222C31.5919 109.476 31.5667 109.743 31.5163 110.022C31.1127 114.109 29.4732 117.675 26.5978 120.722C23.7223 123.818 20.2037 125.558 16.0419 125.938C15.8653 125.963 15.6888 125.976 15.5122 125.976C15.3356 126.002 15.1591 126.015 14.9825 126.015C12.435 126.015 11.1612 125.19 11.1612 123.54C11.1612 123.133 11.2495 122.739 11.4261 122.359C8.67675 125.024 5.95265 126.357 3.25378 126.357ZM15.4365 125.291C15.5879 125.291 15.7392 125.278 15.8906 125.253C19.4722 124.872 22.4612 123.21 24.8574 120.264C26.9509 117.65 28.2499 114.439 28.7543 110.631C28.8048 110.25 28.8426 109.882 28.8678 109.526C28.8931 109.146 28.9057 108.778 28.9057 108.423C28.9057 103.727 27.1022 100.503 23.4953 98.7509C23.0665 99.3089 22.5747 100.173 22.0198 101.34C21.4649 102.508 20.8595 103.993 20.2037 105.795C19.8758 106.683 19.5605 107.585 19.2578 108.499C18.9804 109.412 18.6777 110.314 18.3498 111.202C17.921 112.421 17.2022 114.045 16.1932 116.076C15.941 116.559 15.6509 117.054 15.323 117.561C14.9951 118.069 14.6294 118.602 14.2258 119.161L14.3015 119.122C14.9573 118.767 15.6635 118.411 16.4202 118.056C17.1769 117.701 18.0345 117.434 18.993 117.257C19.8001 117.078 20.5947 116.964 21.3766 116.914C22.1837 116.837 22.9782 116.825 23.7602 116.876C23.9367 116.876 24.025 116.94 24.025 117.067C24.025 117.218 23.9241 117.295 23.7223 117.295H23.2683C23.117 117.269 22.9782 117.257 22.8521 117.257C21.818 117.257 20.6325 117.447 19.2957 117.828C17.5805 118.336 16.2311 119.021 15.2474 119.884C13.5826 121.356 12.7503 122.6 12.7503 123.615C12.7503 124.733 13.5196 125.291 15.0582 125.291H15.4365Z" fill="url(#paint0_linear_170_1023)"/>
<path d="M40.5832 124.225C40.0283 124.225 39.5743 124.059 39.2212 123.73C38.7167 123.298 38.4645 122.575 38.4645 121.559C38.4645 120.899 38.578 120.15 38.805 119.313C37.9474 120.759 37.052 121.94 36.1187 122.854C35.1603 123.742 34.3027 124.186 33.546 124.186C32.8902 124.186 32.3731 123.895 31.9948 123.311C31.5912 122.752 31.3894 121.978 31.3894 120.988C31.3894 118.577 32.4614 116.089 34.6054 113.525C34.9585 113.093 35.362 112.7 35.8161 112.345C36.2701 111.99 36.7619 111.672 37.2916 111.393C38.3762 110.834 39.423 110.555 40.4319 110.555C41.6678 110.555 42.6515 110.961 43.383 111.773C43.5596 111.951 43.6478 112.154 43.6478 112.382C43.6478 112.815 43.4208 112.979 42.9668 112.878C42.7146 111.964 42.1218 111.507 41.1886 111.507C40.1292 111.507 38.8807 112.255 37.4429 113.754C36.9385 114.312 36.4592 114.896 36.0052 115.505C35.5512 116.089 35.1224 116.711 34.7189 117.371C33.6343 119.198 33.092 120.684 33.092 121.826C33.092 122.689 33.4199 123.12 34.0757 123.12C34.8071 123.12 35.6521 122.562 36.6106 121.445C37.1403 120.836 37.6826 120.087 38.2375 119.198C38.7924 118.31 39.3725 117.282 39.9779 116.115C40.2301 115.632 40.4571 115.238 40.6589 114.934C40.8607 114.629 41.0246 114.401 41.1507 114.248C41.5543 113.842 42.0336 113.651 42.5885 113.677L43.3452 113.791C43.6731 113.868 43.9505 113.881 44.1775 113.83C43.9505 114.058 43.6731 114.426 43.3452 114.934C43.0425 115.417 42.6894 116.051 42.2858 116.837C41.857 117.675 41.5039 118.437 41.2264 119.122C40.949 119.807 40.7598 120.417 40.6589 120.95C40.6084 121.203 40.5706 121.445 40.5454 121.674C40.5202 121.877 40.5076 122.067 40.5076 122.245C40.5076 122.905 40.6841 123.234 41.0372 123.234C41.5417 123.234 42.2353 122.676 43.1181 121.559L43.2695 121.369L43.7992 121.711L43.6478 121.94C42.6137 123.463 41.5922 124.225 40.5832 124.225Z" fill="url(#paint1_linear_170_1023)"/>
<path d="M49.7544 108.156C49.7544 108.994 50.1832 109.412 51.0408 109.412C51.8479 109.412 52.2515 108.994 52.2515 108.156C52.2515 107.318 51.8227 106.9 50.9651 106.9C50.158 106.9 49.7544 107.318 49.7544 108.156Z" fill="url(#paint2_linear_170_1023)"/>
<path d="M44.798 123.044C44.798 123.781 45.1637 124.149 45.8952 124.149H47.7869C47.4086 123.945 47.2194 123.54 47.2194 122.93C47.2194 122.346 47.396 121.636 47.7491 120.798L51.2299 112.688C51.3055 112.484 51.3686 112.332 51.419 112.23C51.4695 112.104 51.4947 111.989 51.4947 111.887C51.4947 111.532 51.1416 111.355 50.4353 111.355L48.3544 111.393C48.6823 111.799 48.8463 112.18 48.8463 112.535C48.8463 112.688 48.8084 112.826 48.7328 112.953C48.2283 114.071 47.686 115.314 47.1059 116.686C46.5258 118.056 45.9078 119.553 45.252 121.179C44.9493 121.965 44.798 122.588 44.798 123.044Z" fill="url(#paint3_linear_170_1023)"/>
<path d="M54.6303 124.301C53.3691 124.301 52.398 123.921 51.717 123.159C51.1621 122.524 50.8846 121.763 50.8846 120.874C50.8846 119.579 51.2882 118.932 52.0953 118.932C52.398 118.932 52.6755 119.046 52.9277 119.275C53.1799 119.529 53.3061 119.82 53.3061 120.15C53.3061 120.354 53.2556 120.518 53.1547 120.645C52.8268 121.052 52.6629 121.496 52.6629 121.978C52.6629 122.461 52.8142 122.854 53.1169 123.159C53.4448 123.488 53.861 123.654 54.3654 123.654C54.8951 123.654 55.3744 123.476 55.8031 123.12C56.3833 122.588 56.6733 121.851 56.6733 120.912C56.6733 120.1 56.4589 119.186 56.0302 118.17C55.8536 117.916 55.6392 117.586 55.387 117.181C55.16 116.774 54.8951 116.292 54.5924 115.734C54.4159 115.428 54.2898 115.124 54.2141 114.82C54.1636 114.489 54.1384 114.172 54.1384 113.868C54.1384 112.802 54.5294 111.951 55.3113 111.316C56.1184 110.657 57.1526 110.327 58.4137 110.327C58.7669 110.327 59.1074 110.364 59.4353 110.441C59.7884 110.517 60.1037 110.657 60.3811 110.859C60.9613 111.291 61.2513 111.824 61.2513 112.459C61.2513 112.738 61.2009 112.992 61.1 113.22C60.873 113.881 60.3811 114.211 59.6244 114.211C58.7921 114.211 58.3759 113.778 58.3759 112.916C58.3759 112.662 58.4137 112.446 58.4894 112.268C58.5651 112.014 58.8425 111.761 59.3218 111.507C59.1452 111.176 58.8173 111.012 58.3381 111.012C57.9093 111.012 57.594 111.113 57.3922 111.316C56.7868 111.85 56.4842 112.522 56.4842 113.334C56.4842 113.893 56.6355 114.502 56.9382 115.163C56.9886 115.264 57.4805 116.063 58.4137 117.561C59.0443 118.577 59.3596 119.427 59.3596 120.113C59.3596 121.204 58.8551 122.168 57.8462 123.006C56.8373 123.869 55.7653 124.301 54.6303 124.301Z" fill="url(#paint4_linear_170_1023)"/>
<path d="M57.4688 132.754C58.1246 133.642 59.1335 134.086 60.4956 134.086C62.5639 134.086 64.3295 133.173 65.7924 131.346C66.2212 130.786 66.6878 130.051 67.1923 129.136C67.722 128.248 68.2517 127.169 68.7814 125.9C69.8155 123.488 70.6605 121.432 71.3163 119.732C71.9721 118.006 72.5018 116.647 72.9053 115.657C73.2332 114.896 73.5359 114.248 73.8134 113.715C74.116 113.182 74.3683 112.751 74.5701 112.421C75.1502 111.76 75.6042 111.303 75.9321 111.049H73.5107C72.8297 111.049 72.3504 111.316 72.073 111.85C71.1397 113.778 70.3956 115.301 69.8407 116.419C69.2858 117.511 68.9453 118.183 68.8192 118.437C67.0283 121.61 65.5528 123.197 64.3925 123.197C63.7872 123.197 63.4845 122.778 63.4845 121.94C63.4845 120.417 64.3673 117.866 66.1329 114.286C66.9148 112.662 67.6589 111.596 68.3652 111.088H66.3599C65.6789 111.088 65.1997 111.355 64.9222 111.887C64.0646 113.639 63.2323 115.505 62.4251 117.485C61.8702 118.855 61.5928 120.15 61.5928 121.369C61.5928 123.222 62.299 124.148 63.7115 124.148C64.9727 124.148 66.259 123.26 67.5706 121.483C67.7724 121.203 68.0877 120.696 68.5165 119.96C68.9705 119.224 69.5254 118.272 70.1812 117.104L69.0462 119.998C68.6931 120.962 68.3147 121.927 67.9112 122.892C67.331 124.365 66.7509 125.672 66.1708 126.814C65.5906 127.956 65.0231 128.934 64.4682 129.746C62.98 131.929 61.5423 133.02 60.1551 133.02C58.566 133.02 57.7715 132.335 57.7715 130.965C57.7715 130.584 57.8471 130.19 57.9985 129.784L57.2796 129.822C57.1283 130.076 57.0526 130.482 57.0526 131.04C57.0526 131.751 57.1913 132.322 57.4688 132.754Z" fill="url(#paint5_linear_170_1023)"/>
<path fill-rule="evenodd" clip-rule="evenodd" d="M108.926 128.027C107.933 128.027 106.853 127.864 105.686 127.539C104.544 127.239 103.315 126.777 101.999 126.153L95.2954 122.855C93.5077 124.853 91.7201 125.852 89.9326 125.852C89.3615 125.852 88.8649 125.678 88.4428 125.328C88.0456 125.003 87.8469 124.566 87.8469 124.016C87.8469 122.891 88.5173 122.017 89.8581 121.392C90.5036 121.092 91.2732 120.943 92.1671 120.943C93.0857 120.943 93.9919 121.092 94.8857 121.392L94.9975 121.43C95.1464 121.155 95.2954 120.867 95.4444 120.568L95.8912 119.593C96.5616 117.969 97.2072 116.345 97.8279 114.72C98.4733 113.096 99.1317 111.485 99.8017 109.885C100.596 107.962 101.502 106.262 102.52 104.789C103.563 103.314 104.668 102.04 105.835 100.965C106.903 100.016 108.268 99.191 109.931 98.4914C111.62 97.7917 113.172 97.4419 114.587 97.4419C116.598 97.4419 117.604 98.2165 117.604 99.7661C117.604 100.44 117.38 101.065 116.933 101.64C116.436 102.214 115.877 102.502 115.257 102.502C114.786 102.502 114.376 102.327 114.028 101.977C113.705 101.627 113.581 101.203 113.656 100.703C113.804 99.5529 114.425 98.9786 115.518 98.9786C116.064 98.9786 116.462 99.2158 116.71 99.6907C116.635 98.8411 115.94 98.4164 114.624 98.4164C114.301 98.4164 113.991 98.4539 113.693 98.5288C110.789 99.3536 108.107 101.69 105.648 105.538C105.028 106.487 104.134 107.999 102.967 110.073C101.801 112.147 100.348 114.783 98.6095 117.982C97.7906 119.481 96.9589 120.767 96.1147 121.842C97.1575 122.267 98.2003 122.704 99.243 123.154C100.285 123.604 101.341 124.041 102.409 124.466C104.867 125.441 106.903 125.928 108.516 125.928C109.013 125.928 109.485 125.878 109.931 125.778C110.403 125.702 110.851 125.59 111.272 125.441C112.29 125.066 113.159 124.466 113.879 123.641C114.574 122.842 114.922 122.017 114.922 121.168C114.922 119.893 114.077 118.968 112.39 118.394C112.117 118.294 111.818 118.219 111.496 118.169C111.197 118.119 110.875 118.094 110.527 118.094C109.385 118.094 108.206 118.344 106.989 118.844C106.22 119.169 105.488 119.593 104.792 120.118C104.097 120.618 103.439 121.217 102.819 121.917C102.719 122.017 102.62 122.067 102.52 122.067C102.322 122.067 102.223 121.992 102.223 121.842C102.223 121.793 102.234 121.755 102.26 121.73C103.427 120.03 104.854 118.831 106.543 118.132C107.585 117.681 108.727 117.457 109.969 117.457C110.887 117.457 111.72 117.582 112.464 117.832C114.822 118.581 116.002 120.055 116.002 122.255C116.002 123.453 115.593 124.566 114.773 125.59C114.351 126.115 113.867 126.552 113.321 126.902C112.775 127.277 112.154 127.552 111.459 127.726C111.037 127.826 110.614 127.902 110.192 127.951C109.77 128.002 109.348 128.027 108.926 128.027ZM90.1188 125.103C91.6084 125.103 93.0112 124.216 94.3271 122.442C93.8553 122.267 93.4084 122.13 92.9863 122.03C92.5643 121.929 92.1547 121.867 91.7574 121.842C89.8953 121.867 88.9022 122.542 88.778 123.866V123.978C88.778 124.279 88.8897 124.528 89.1132 124.728C89.3615 124.978 89.6967 125.103 90.1188 125.103Z" fill="url(#paint6_linear_170_1023)"/>
<path d="M78.7506 118.169C78.6016 118.169 78.4651 118.056 78.341 117.832C78.192 117.556 78.1176 117.306 78.1176 117.082C78.1176 116.607 78.3286 116.369 78.7506 116.369C79.272 116.369 80.2155 116.382 81.581 116.407C82.9466 116.432 84.7342 116.47 86.9439 116.52C87.4653 116.52 87.726 116.719 87.726 117.119C87.726 117.395 87.5149 117.532 87.0928 117.532C86.1494 117.532 84.9825 117.594 83.5921 117.719C82.2017 117.819 80.5879 117.969 78.7506 118.169Z" fill="url(#paint7_linear_170_1023)"/>
<path d="M125.302 123.678C125.65 124.004 126.097 124.165 126.643 124.165C127.636 124.165 128.642 123.417 129.66 121.917L129.808 121.692L129.287 121.355L129.138 121.543C128.269 122.641 127.587 123.192 127.09 123.192C126.742 123.192 126.569 122.866 126.569 122.217C126.569 122.042 126.581 121.855 126.605 121.655C126.631 121.43 126.667 121.193 126.718 120.943C126.817 120.418 127.003 119.818 127.276 119.143C127.549 118.469 127.897 117.719 128.319 116.895C128.716 116.12 129.063 115.495 129.361 115.021C129.684 114.521 129.957 114.158 130.181 113.933C129.957 113.984 129.684 113.971 129.361 113.896L128.616 113.783C128.07 113.759 127.598 113.946 127.201 114.346C127.077 114.495 126.916 114.72 126.718 115.021C126.519 115.32 126.295 115.708 126.047 116.182C125.451 117.332 124.88 118.344 124.334 119.218C123.787 120.093 123.253 120.83 122.732 121.43C121.789 122.529 120.958 123.079 120.237 123.079C119.592 123.079 119.269 122.654 119.269 121.804C119.269 120.68 119.803 119.218 120.87 117.42C121.268 116.77 121.69 116.157 122.137 115.583C122.583 114.983 123.055 114.408 123.552 113.859C124.967 112.384 126.196 111.647 127.239 111.647C128.157 111.647 128.74 112.097 128.989 112.997C129.436 113.096 129.66 112.934 129.66 112.509C129.66 112.284 129.573 112.085 129.398 111.909C128.678 111.11 127.711 110.71 126.494 110.71C125.501 110.71 124.47 110.985 123.403 111.534C122.882 111.81 122.397 112.122 121.951 112.471C121.503 112.821 121.106 113.209 120.759 113.634C118.648 116.157 117.593 118.606 117.593 120.98C117.593 121.954 117.792 122.717 118.189 123.266C118.561 123.841 119.07 124.129 119.716 124.129C120.461 124.129 121.304 123.691 122.248 122.817C123.167 121.917 124.048 120.755 124.893 119.33C124.669 120.155 124.557 120.892 124.557 121.543C124.557 122.542 124.805 123.254 125.302 123.678Z" fill="url(#paint8_linear_170_1023)"/>
<path d="M134.069 124.241C132.827 124.241 131.872 123.866 131.202 123.116C130.655 122.492 130.382 121.742 130.382 120.867C130.382 119.593 130.779 118.955 131.574 118.955C131.872 118.955 132.144 119.069 132.393 119.294C132.641 119.544 132.765 119.83 132.765 120.155C132.765 120.356 132.716 120.517 132.616 120.642C132.293 121.043 132.133 121.48 132.133 121.954C132.133 122.429 132.281 122.817 132.579 123.116C132.902 123.441 133.312 123.604 133.809 123.604C134.33 123.604 134.802 123.429 135.223 123.079C135.794 122.554 136.08 121.829 136.08 120.905C136.08 120.106 135.869 119.205 135.447 118.207C135.273 117.957 135.062 117.632 134.814 117.232C134.59 116.832 134.33 116.358 134.031 115.807C133.858 115.508 133.734 115.208 133.659 114.908C133.61 114.584 133.585 114.271 133.585 113.971C133.585 112.922 133.969 112.085 134.74 111.46C135.534 110.81 136.552 110.485 137.793 110.485C138.141 110.485 138.476 110.523 138.799 110.597C139.146 110.673 139.456 110.81 139.73 111.01C140.301 111.435 140.586 111.96 140.586 112.584C140.586 112.859 140.536 113.109 140.438 113.334C140.214 113.984 139.73 114.308 138.985 114.308C138.166 114.308 137.756 113.883 137.756 113.034C137.756 112.784 137.793 112.572 137.868 112.397C137.942 112.147 138.215 111.897 138.687 111.647C138.513 111.322 138.19 111.16 137.718 111.16C137.297 111.16 136.986 111.26 136.787 111.46C136.192 111.985 135.893 112.647 135.893 113.446C135.893 113.995 136.042 114.595 136.341 115.245C136.39 115.345 136.875 116.132 137.793 117.607C138.414 118.606 138.724 119.443 138.724 120.118C138.724 121.193 138.228 122.142 137.234 122.967C136.241 123.816 135.186 124.241 134.069 124.241Z" fill="url(#paint9_linear_170_1023)"/>
<path d="M143.082 115.995C141.518 119.618 140.314 122.404 139.47 124.353C139.619 124.278 140.103 124.216 140.922 124.165C141.543 124.141 141.94 123.941 142.114 123.566C142.834 121.967 143.603 120.555 144.423 119.33C145.267 118.082 146.161 117.02 147.105 116.145C147.7 115.595 148.209 115.182 148.631 114.908C149.078 114.608 149.438 114.459 149.711 114.459C149.985 114.459 150.121 114.608 150.121 114.908C150.121 115.182 149.997 115.521 149.748 115.92C148.134 118.519 147.328 120.481 147.328 121.804C147.328 123.429 148.11 124.241 149.674 124.241C150.941 124.241 152.219 123.254 153.51 121.28L152.952 120.943C151.81 122.617 150.903 123.453 150.233 123.453C149.737 123.453 149.488 123.116 149.488 122.442C149.488 122.167 149.525 121.842 149.6 121.467C149.773 120.392 150.58 118.457 152.02 115.657C152.318 115.083 152.628 114.47 152.952 113.821C153.299 113.171 153.672 112.497 154.069 111.797C153.994 111.772 153.87 111.759 153.696 111.759C153.001 111.759 151.921 112.172 150.456 112.997C149.81 113.346 149.214 113.721 148.669 114.12C148.123 114.495 147.626 114.896 147.179 115.32C146.533 115.895 145.95 116.458 145.429 117.007C144.907 117.556 144.46 118.094 144.088 118.618C145.776 114.845 147.229 111.597 148.445 108.874C149.662 106.15 150.655 103.951 151.424 102.277C151.573 101.927 151.648 101.665 151.648 101.489C151.648 101.165 151.3 101.003 150.606 101.003H148.594C148.892 101.402 149.041 101.777 149.041 102.127C149.041 102.202 149.028 102.277 149.004 102.352C149.004 102.426 148.992 102.502 148.966 102.576C146.633 107.874 144.671 112.346 143.082 115.995Z" fill="url(#paint10_linear_170_1023)"/>
<path fill-rule="evenodd" clip-rule="evenodd" d="M157.973 124.241C157.005 124.241 156.173 123.928 155.478 123.304C155.105 122.954 154.832 122.554 154.658 122.105C154.509 121.63 154.435 121.092 154.435 120.493C154.435 118.194 155.378 115.907 157.265 113.634C158.854 111.71 160.506 110.748 162.219 110.748C162.789 110.748 163.274 110.898 163.671 111.197C164.093 111.547 164.304 111.997 164.304 112.547C164.304 113.921 163.398 115.296 161.585 116.67C161.014 117.094 160.257 117.469 159.313 117.794C158.271 118.144 157.513 118.319 157.042 118.319C156.695 119.169 156.52 120.068 156.52 121.017C156.52 122.641 157.116 123.453 158.308 123.453C159.872 123.453 161.337 122.429 162.703 120.38L162.852 120.155L163.485 120.418L163.373 120.642C162.752 121.892 161.971 122.804 161.027 123.379C160.083 123.953 159.065 124.241 157.973 124.241ZM157.265 117.681C157.688 117.681 158.271 117.544 159.016 117.27C159.438 117.094 159.835 116.907 160.207 116.708C160.605 116.507 160.952 116.282 161.25 116.032C162.616 114.883 163.299 113.671 163.299 112.397C163.299 111.847 163.1 111.572 162.703 111.572C162.007 111.572 160.952 112.435 159.537 114.158C158.817 115.033 158.06 116.208 157.265 117.681Z" fill="url(#paint11_linear_170_1023)"/>
<path d="M164.552 123.116C165.222 123.866 166.178 124.241 167.419 124.241C168.537 124.241 169.592 123.816 170.585 122.967C171.578 122.142 172.075 121.193 172.075 120.118C172.075 119.443 171.764 118.606 171.144 117.607C170.225 116.132 169.741 115.345 169.691 115.245C169.393 114.595 169.244 113.995 169.244 113.446C169.244 112.647 169.543 111.985 170.138 111.46C170.337 111.26 170.647 111.16 171.069 111.16C171.541 111.16 171.864 111.322 172.037 111.647C171.565 111.897 171.292 112.147 171.219 112.397C171.144 112.572 171.106 112.784 171.106 113.034C171.106 113.883 171.516 114.308 172.335 114.308C173.08 114.308 173.564 113.984 173.788 113.334C173.887 113.109 173.937 112.859 173.937 112.584C173.937 111.96 173.651 111.435 173.08 111.01C172.807 110.81 172.496 110.673 172.149 110.597C171.826 110.523 171.491 110.485 171.144 110.485C169.902 110.485 168.884 110.81 168.089 111.46C167.32 112.085 166.936 112.922 166.936 113.971C166.936 114.271 166.96 114.584 167.009 114.908C167.084 115.208 167.208 115.508 167.382 115.807C167.68 116.358 167.941 116.832 168.164 117.232C168.412 117.632 168.623 117.957 168.798 118.207C169.219 119.205 169.43 120.106 169.43 120.905C169.43 121.829 169.145 122.554 168.574 123.079C168.151 123.429 167.68 123.604 167.158 123.604C166.663 123.604 166.253 123.441 165.93 123.116C165.632 122.817 165.483 122.429 165.483 121.954C165.483 121.48 165.644 121.043 165.967 120.642C166.067 120.517 166.116 120.356 166.116 120.155C166.116 119.83 165.992 119.544 165.743 119.294C165.495 119.069 165.222 118.955 164.925 118.955C164.129 118.955 163.732 119.593 163.732 120.867C163.732 121.742 164.005 122.492 164.552 123.116Z" fill="url(#paint12_linear_170_1023)"/>
<path d="M60.1247 10.6317C45.5992 15.6044 37.8296 31.4864 42.7707 46.105L49.5677 66.2147C49.7424 66.2114 49.9189 66.2098 50.0971 66.2098C52.8096 66.2098 58.2086 67.1031 66.2939 68.8897C71.745 67.4446 76.0354 65.172 79.1652 62.0716C82.2168 59.0501 86.8985 52.4685 93.2104 42.3268C97.0183 36.1787 101.205 30.9371 105.769 26.6019C101.96 20.1385 95.7924 16.9068 87.2637 16.9068C78.4481 16.9068 70.3627 20.4012 63.0076 27.3901C59.304 30.9108 56.3437 34.7993 54.1268 39.0557C51.9098 43.3121 50.8013 47.2268 50.8013 50.8002C50.8013 53.6377 51.6881 55.9104 53.4616 57.6182C55.2613 59.326 57.6348 60.1799 60.582 60.1799C65.5636 60.1799 70.7278 57.4736 76.0746 52.0613C81.4474 46.6488 84.1339 41.4466 84.1339 36.4546C84.1339 34.5629 83.6122 33.039 82.569 31.8829C81.5257 30.7269 80.1564 30.1489 78.4611 30.1489C76.531 30.1489 75.566 30.4641 75.566 31.0948C75.566 31.2786 75.7095 31.3706 75.9963 31.3706C76.1529 31.3706 76.2832 31.3443 76.3875 31.2918H76.9353C78.2133 31.2918 78.8523 31.8829 78.8523 33.0653C78.8523 33.9323 78.5263 34.6943 77.8742 35.3511C77.2222 35.9817 76.4528 36.2969 75.566 36.2969C73.975 36.2969 73.1795 35.4299 73.1795 33.6958C73.1795 32.5135 73.7011 31.5019 74.7444 30.6612C75.7877 29.8204 77.0526 29.4 78.5393 29.4C80.4432 29.4 81.9822 30.0438 83.1558 31.3312C84.3556 32.5923 84.9554 34.2476 84.9554 36.2969C84.9554 41.6042 82.2038 47.0298 76.7006 52.5736C71.2233 58.1174 65.8505 60.8893 60.582 60.8893C56.9566 60.8893 53.9702 59.6807 51.6229 57.2635C49.2755 54.82 48.1018 51.6934 48.1018 47.8838C48.1018 39.7126 52.1054 32.3952 60.1125 25.9319C68.1196 19.4422 77.1701 16.1974 87.2637 16.1974C95.8446 16.1974 102.313 19.3897 106.668 25.7742C111.541 21.2474 116.476 18.4539 121.472 17.3934C115.965 3.79154 100.803 -3.29464 86.8064 1.49713L60.1247 10.6317Z" fill="url(#paint13_linear_170_1023)"/>
<path d="M121.707 17.9971C116.753 18.9819 111.924 21.8764 107.216 26.6807C109.459 30.8845 110.581 35.3248 110.581 40.0015C110.581 48.6194 107.295 55.9236 100.722 61.9139C94.1754 67.9044 86.1682 70.8996 76.7006 70.8996C73.7795 70.8996 69.7759 70.4924 64.6899 69.6779C60.282 70.4924 56.0568 70.8996 52.0142 70.8996C51.7198 70.8996 51.4317 70.8983 51.1499 70.8959L51.847 72.9581C56.788 87.5767 72.5687 95.3963 87.0941 90.4235L113.776 81.2889C128.301 76.3161 136.071 60.4342 131.13 45.8155L127.613 35.4098C119.065 49.7594 113.995 58.3445 112.4 61.1652C110.601 64.3968 109.702 66.5382 109.702 67.5892C109.702 68.7715 110.197 69.3626 111.188 69.3626C113.379 69.3626 117.396 65.1982 123.238 56.8694C123.369 56.6067 123.524 56.4753 123.708 56.4753C123.812 56.5016 123.864 56.5804 123.864 56.7118C123.864 56.8694 123.733 57.0796 123.473 57.3423L121.79 59.6675C116.861 66.5251 113.222 69.9537 110.875 69.9537C109.754 69.9537 108.828 69.5334 108.098 68.6926C107.393 67.8256 107.041 66.7352 107.041 65.4215C107.041 63.9765 107.367 62.584 108.019 61.244C108.697 59.8778 110.966 55.9629 114.826 49.4996C119.15 42.2576 122.849 35.8969 125.925 30.4176L122.053 18.9625C121.944 18.6373 121.829 18.3155 121.707 17.9971Z" fill="url(#paint14_linear_170_1023)"/>
<path d="M50.9072 70.1779C51.4934 70.1861 52.1101 70.1903 52.7575 70.1903C56.6697 70.1903 60.1908 69.9407 63.3207 69.4415C57.9033 68.6703 53.52 68.1894 50.1707 67.9985L50.9072 70.1779Z" fill="url(#paint15_linear_170_1023)"/>
<path d="M106.356 27.6265C107.738 30.5691 108.429 33.722 108.429 37.0851C108.429 43.1544 106.421 49.3419 102.404 55.6475C96.2227 65.3952 88.1374 70.269 78.148 70.269C74.4184 70.269 70.8974 69.9143 67.585 69.2049C75.4356 66.9979 81.3953 64.0683 85.464 60.4163C89.4024 56.843 93.2104 50.9971 96.8878 42.8785C99.6785 36.7566 102.834 31.6727 106.356 27.6265Z" fill="url(#paint16_linear_170_1023)"/>
</g>
<defs>
<linearGradient id="paint0_linear_170_1023" x1="-85.4918" y1="80.8715" x2="-55.1216" y2="190.6" gradientUnits="userSpaceOnUse">
<stop stop-color="#977CAB"/>
<stop offset="0.588542" stop-color="#D8ADC1"/>
<stop offset="1" stop-color="#E067C3"/>
</linearGradient>
<linearGradient id="paint1_linear_170_1023" x1="-85.4919" y1="80.8715" x2="-55.1217" y2="190.6" gradientUnits="userSpaceOnUse">
<stop stop-color="#977CAB"/>
<stop offset="0.588542" stop-color="#D8ADC1"/>
<stop offset="1" stop-color="#E067C3"/>
</linearGradient>
<linearGradient id="paint2_linear_170_1023" x1="-85.4919" y1="80.8715" x2="-55.1217" y2="190.6" gradientUnits="userSpaceOnUse">
<stop stop-color="#977CAB"/>
<stop offset="0.588542" stop-color="#D8ADC1"/>
<stop offset="1" stop-color="#E067C3"/>
</linearGradient>
<linearGradient id="paint3_linear_170_1023" x1="-85.4919" y1="80.8714" x2="-55.1216" y2="190.6" gradientUnits="userSpaceOnUse">
<stop stop-color="#977CAB"/>
<stop offset="0.588542" stop-color="#D8ADC1"/>
<stop offset="1" stop-color="#E067C3"/>
</linearGradient>
<linearGradient id="paint4_linear_170_1023" x1="-85.4918" y1="80.8715" x2="-55.1216" y2="190.6" gradientUnits="userSpaceOnUse">
<stop stop-color="#977CAB"/>
<stop offset="0.588542" stop-color="#D8ADC1"/>
<stop offset="1" stop-color="#E067C3"/>
</linearGradient>
<linearGradient id="paint5_linear_170_1023" x1="-85.4918" y1="80.8714" x2="-55.1215" y2="190.599" gradientUnits="userSpaceOnUse">
<stop stop-color="#977CAB"/>
<stop offset="0.588542" stop-color="#D8ADC1"/>
<stop offset="1" stop-color="#E067C3"/>
</linearGradient>
<linearGradient id="paint6_linear_170_1023" x1="-85.4918" y1="80.8715" x2="-55.1216" y2="190.6" gradientUnits="userSpaceOnUse">
<stop stop-color="#977CAB"/>
<stop offset="0.588542" stop-color="#D8ADC1"/>
<stop offset="1" stop-color="#E067C3"/>
</linearGradient>
<linearGradient id="paint7_linear_170_1023" x1="-85.4917" y1="80.8716" x2="-55.1217" y2="190.599" gradientUnits="userSpaceOnUse">
<stop stop-color="#977CAB"/>
<stop offset="0.588542" stop-color="#D8ADC1"/>
<stop offset="1" stop-color="#E067C3"/>
</linearGradient>
<linearGradient id="paint8_linear_170_1023" x1="-85.4918" y1="80.8714" x2="-55.1215" y2="190.6" gradientUnits="userSpaceOnUse">
<stop stop-color="#977CAB"/>
<stop offset="0.588542" stop-color="#D8ADC1"/>
<stop offset="1" stop-color="#E067C3"/>
</linearGradient>
<linearGradient id="paint9_linear_170_1023" x1="-85.4917" y1="80.8714" x2="-55.1213" y2="190.6" gradientUnits="userSpaceOnUse">
<stop stop-color="#977CAB"/>
<stop offset="0.588542" stop-color="#D8ADC1"/>
<stop offset="1" stop-color="#E067C3"/>
</linearGradient>
<linearGradient id="paint10_linear_170_1023" x1="-85.4917" y1="80.8715" x2="-55.1214" y2="190.6" gradientUnits="userSpaceOnUse">
<stop stop-color="#977CAB"/>
<stop offset="0.588542" stop-color="#D8ADC1"/>
<stop offset="1" stop-color="#E067C3"/>
</linearGradient>
<linearGradient id="paint11_linear_170_1023" x1="-85.4917" y1="80.8715" x2="-55.1213" y2="190.6" gradientUnits="userSpaceOnUse">
<stop stop-color="#977CAB"/>
<stop offset="0.588542" stop-color="#D8ADC1"/>
<stop offset="1" stop-color="#E067C3"/>
</linearGradient>
<linearGradient id="paint12_linear_170_1023" x1="-85.4917" y1="80.8714" x2="-55.1214" y2="190.6" gradientUnits="userSpaceOnUse">
<stop stop-color="#977CAB"/>
<stop offset="0.588542" stop-color="#D8ADC1"/>
<stop offset="1" stop-color="#E067C3"/>
</linearGradient>
<linearGradient id="paint13_linear_170_1023" x1="-3.60874" y1="-34.6448" x2="133.36" y2="74.6132" gradientUnits="userSpaceOnUse">
<stop stop-color="#977CAB"/>
<stop offset="0.588542" stop-color="#D8ADC1"/>
<stop offset="1" stop-color="#E067C3"/>
</linearGradient>
<linearGradient id="paint14_linear_170_1023" x1="-3.6087" y1="-34.6448" x2="133.36" y2="74.6132" gradientUnits="userSpaceOnUse">
<stop stop-color="#977CAB"/>
<stop offset="0.588542" stop-color="#D8ADC1"/>
<stop offset="1" stop-color="#E067C3"/>
</linearGradient>
<linearGradient id="paint15_linear_170_1023" x1="-3.60869" y1="-34.6446" x2="133.36" y2="74.6134" gradientUnits="userSpaceOnUse">
<stop stop-color="#977CAB"/>
<stop offset="0.588542" stop-color="#D8ADC1"/>
<stop offset="1" stop-color="#E067C3"/>
</linearGradient>
<linearGradient id="paint16_linear_170_1023" x1="-3.60876" y1="-34.6448" x2="133.36" y2="74.6131" gradientUnits="userSpaceOnUse">
<stop stop-color="#977CAB"/>
<stop offset="0.588542" stop-color="#D8ADC1"/>
<stop offset="1" stop-color="#E067C3"/>
</linearGradient>
<clipPath id="clip0_170_1023">
<rect width="174" height="134" fill="white"/>
</clipPath>
</defs>
</svg>
