<svg width="24" height="20" viewBox="0 0 24 20" fill="none" xmlns="http://www.w3.org/2000/svg">
<g clip-path="url(#clip0_170_1065)">
<path d="M15.8906 0.697266L12 12.9628L8.10966 0.697266C3.48176 2.28796 0 6.60304 0 11.55C0 14.5296 1.21559 17.2773 3.18217 19.3025H8.82264L9.41396 16.7382C2.67551 14.098 3.94965 5.91668 6.39248 4.58123C6.68244 4.66841 10.9314 19.2421 10.9314 19.2421C10.9895 19.2421 11.178 19.2421 11.4084 19.2421C11.4571 19.2421 11.6403 19.2421 11.8687 19.2421C11.9513 19.2421 12.0406 19.2421 12.131 19.2421C12.2862 19.2421 12.4471 19.2421 12.5911 19.2421C12.8217 19.2421 13.01 19.2421 13.0683 19.2421C13.0683 19.2421 17.3176 4.66841 17.6073 4.58123C20.0504 5.91668 21.324 14.098 14.5855 16.7382L15.1771 19.3025H20.8176C22.7844 17.2773 24 14.5296 24 11.55C24 6.60304 20.5182 2.28796 15.8906 0.697266Z" fill="#DC0000"/>
</g>
<defs>
<clipPath id="clip0_170_1065">
<rect width="24" height="20" fill="white"/>
</clipPath>
</defs>
</svg>
