<svg width="101" height="42" viewBox="0 0 101 42" fill="none" xmlns="http://www.w3.org/2000/svg">
<path d="M7.7525 41V6.8175L0.3 11.3275V5.855L7.7525 1.4H12.73V41H7.7525ZM36.5588 41.825C33.9921 41.825 31.7004 41.2475 29.6838 40.0925C27.6854 38.9192 26.0996 37.3333 24.9263 35.335C23.7713 33.3183 23.1938 31.0267 23.1938 28.46V13.94C23.1938 11.3733 23.7713 9.08166 24.9263 7.065C26.0996 5.04833 27.6854 3.4625 29.6838 2.3075C31.7004 1.1525 33.9921 0.574999 36.5588 0.574999C39.1254 0.574999 41.4171 1.1525 43.4338 2.3075C45.4504 3.4625 47.0363 5.04833 48.1913 7.065C49.3463 9.08166 49.9238 11.3733 49.9238 13.94V28.46C49.9238 31.0267 49.3463 33.3183 48.1913 35.335C47.0363 37.3333 45.4504 38.9192 43.4338 40.0925C41.4171 41.2475 39.1254 41.825 36.5588 41.825ZM36.5588 37.1225C38.1171 37.1225 39.5288 36.7467 40.7938 35.995C42.0588 35.2433 43.0671 34.235 43.8188 32.97C44.5704 31.6867 44.9463 30.275 44.9463 28.735V13.6375C44.9463 12.0792 44.5704 10.6675 43.8188 9.4025C43.0671 8.1375 42.0588 7.12917 40.7938 6.3775C39.5288 5.62583 38.1171 5.25 36.5588 5.25C35.0188 5.25 33.6071 5.62583 32.3238 6.3775C31.0588 7.12917 30.0504 8.1375 29.2988 9.4025C28.5471 10.6675 28.1713 12.0792 28.1713 13.6375V28.735C28.1713 30.275 28.5471 31.6867 29.2988 32.97C30.0504 34.235 31.0588 35.2433 32.3238 35.995C33.6071 36.7467 35.0188 37.1225 36.5588 37.1225ZM62.0225 41L58.7225 37.7L95.0775 1.4L98.3775 4.7L62.0225 41ZM90.1275 41.825C88.3125 41.825 86.6533 41.385 85.15 40.505C83.665 39.6067 82.4733 38.415 81.575 36.93C80.6766 35.4267 80.2275 33.7583 80.2275 31.925C80.2275 30.1283 80.6858 28.4783 81.6025 26.975C82.5191 25.4717 83.7291 24.2708 85.2325 23.3725C86.7358 22.4742 88.3675 22.025 90.1275 22.025C91.9425 22.025 93.6016 22.4742 95.105 23.3725C96.6083 24.2525 97.8 25.4442 98.68 26.9475C99.5783 28.4325 100.027 30.0917 100.027 31.925C100.027 33.7583 99.5783 35.4267 98.68 36.93C97.8 38.415 96.6083 39.6067 95.105 40.505C93.6016 41.385 91.9425 41.825 90.1275 41.825ZM90.1275 37.5075C91.1358 37.5075 92.0616 37.2508 92.905 36.7375C93.7666 36.2242 94.445 35.5458 94.94 34.7025C95.4533 33.8592 95.71 32.9333 95.71 31.925C95.71 30.9167 95.4533 29.9908 94.94 29.1475C94.445 28.2858 93.7666 27.6075 92.905 27.1125C92.0616 26.5992 91.1358 26.3425 90.1275 26.3425C89.1191 26.3425 88.1933 26.5992 87.35 27.1125C86.5066 27.6075 85.8283 28.2858 85.315 29.1475C84.8016 29.9908 84.545 30.9167 84.545 31.925C84.545 32.9333 84.8016 33.8592 85.315 34.7025C85.8283 35.5458 86.5066 36.2242 87.35 36.7375C88.1933 37.2508 89.1191 37.5075 90.1275 37.5075ZM66.9725 20.375C65.1575 20.375 63.4983 19.935 61.995 19.055C60.4916 18.1567 59.2908 16.965 58.3925 15.48C57.5125 13.9767 57.0725 12.3083 57.0725 10.475C57.0725 8.67833 57.5308 7.02833 58.4475 5.525C59.3641 4.02166 60.5741 2.82083 62.0775 1.9225C63.5808 1.02417 65.2125 0.574999 66.9725 0.574999C68.7875 0.574999 70.4375 1.02417 71.9225 1.9225C73.4258 2.8025 74.6266 3.99417 75.525 5.4975C76.4233 6.9825 76.8725 8.64167 76.8725 10.475C76.8725 12.3083 76.4233 13.9767 75.525 15.48C74.6266 16.965 73.4258 18.1567 71.9225 19.055C70.4375 19.935 68.7875 20.375 66.9725 20.375ZM66.9725 16.0575C67.9808 16.0575 68.9066 15.8008 69.75 15.2875C70.6116 14.7742 71.29 14.0958 71.785 13.2525C72.2983 12.4092 72.555 11.4833 72.555 10.475C72.555 9.46667 72.2983 8.54083 71.785 7.6975C71.29 6.83583 70.6116 6.1575 69.75 5.6625C68.9066 5.14916 67.9808 4.8925 66.9725 4.8925C65.9641 4.8925 65.0383 5.14916 64.195 5.6625C63.3516 6.1575 62.6733 6.83583 62.16 7.6975C61.6466 8.54083 61.39 9.46667 61.39 10.475C61.39 11.4833 61.6466 12.4092 62.16 13.2525C62.6733 14.0958 63.3516 14.7742 64.195 15.2875C65.0383 15.8008 65.9641 16.0575 66.9725 16.0575Z" fill="#E067C3"/>
</svg>
