<svg width="50" height="50" viewBox="0 0 50 50" fill="none" xmlns="http://www.w3.org/2000/svg">
<rect width="50" height="50" rx="8.33333" fill="#E067C3"/>
<path d="M15.682 36.303L13.9547 34.5758L32.9835 15.5758L34.7108 17.303L15.682 36.303ZM30.3926 36.7349C29.4426 36.7349 28.5742 36.5046 27.7873 36.0439C27.01 35.5737 26.3863 34.95 25.9161 34.1727C25.4459 33.3859 25.2108 32.5126 25.2108 31.553C25.2108 30.6126 25.4507 29.749 25.9305 28.9621C26.4103 28.1753 27.0436 27.5467 27.8305 27.0765C28.6174 26.6063 29.4714 26.3712 30.3926 26.3712C31.3426 26.3712 32.2111 26.6063 32.9979 27.0765C33.7848 27.5371 34.4085 28.1609 34.8691 28.9477C35.3393 29.725 35.5744 30.5934 35.5744 31.553C35.5744 32.5126 35.3393 33.3859 34.8691 34.1727C34.4085 34.95 33.7848 35.5737 32.9979 36.0439C32.2111 36.5046 31.3426 36.7349 30.3926 36.7349ZM30.3926 34.475C30.9204 34.475 31.405 34.3407 31.8464 34.072C32.2974 33.8033 32.6525 33.4482 32.9116 33.0068C33.1802 32.5654 33.3146 32.0808 33.3146 31.553C33.3146 31.0253 33.1802 30.5407 32.9116 30.0993C32.6525 29.6482 32.2974 29.2932 31.8464 29.0341C31.405 28.7654 30.9204 28.6311 30.3926 28.6311C29.8648 28.6311 29.3802 28.7654 28.9388 29.0341C28.4974 29.2932 28.1424 29.6482 27.8737 30.0993C27.605 30.5407 27.4707 31.0253 27.4707 31.553C27.4707 32.0808 27.605 32.5654 27.8737 33.0068C28.1424 33.4482 28.4974 33.8033 28.9388 34.072C29.3802 34.3407 29.8648 34.475 30.3926 34.475ZM18.2729 25.5076C17.3229 25.5076 16.4545 25.2773 15.6676 24.8167C14.8808 24.3465 14.2522 23.7227 13.782 22.9455C13.3214 22.1586 13.0911 21.2854 13.0911 20.3258C13.0911 19.3854 13.331 18.5217 13.8108 17.7349C14.2906 16.948 14.9239 16.3195 15.7108 15.8492C16.4977 15.379 17.3517 15.1439 18.2729 15.1439C19.2229 15.1439 20.0866 15.379 20.8638 15.8492C21.6507 16.3099 22.2792 16.9336 22.7494 17.7205C23.2196 18.4977 23.4547 19.3662 23.4547 20.3258C23.4547 21.2854 23.2196 22.1586 22.7494 22.9455C22.2792 23.7227 21.6507 24.3465 20.8638 24.8167C20.0866 25.2773 19.2229 25.5076 18.2729 25.5076ZM18.2729 23.2477C18.8007 23.2477 19.2853 23.1134 19.7267 22.8447C20.1777 22.576 20.5328 22.221 20.7919 21.7796C21.0605 21.3381 21.1949 20.8535 21.1949 20.3258C21.1949 19.798 21.0605 19.3134 20.7919 18.872C20.5328 18.421 20.1777 18.0659 19.7267 17.8068C19.2853 17.5381 18.8007 17.4038 18.2729 17.4038C17.7451 17.4038 17.2605 17.5381 16.8191 17.8068C16.3777 18.0659 16.0227 18.421 15.754 18.872C15.4853 19.3134 15.351 19.798 15.351 20.3258C15.351 20.8535 15.4853 21.3381 15.754 21.7796C16.0227 22.221 16.3777 22.576 16.8191 22.8447C17.2605 23.1134 17.7451 23.2477 18.2729 23.2477Z" fill="white"/>
</svg>
